<?xml version="1.0" encoding="UTF-8" standalone="no"?>
<svg
   width="53.988754"
   height="44.79303"
   viewBox="0 0 53.988754 44.79303"
   fill="none"
   version="1.1"
   id="svg1"
   sodipodi:docname="6883572e6ebf68cfe676ddf8_Group 14449.svg"
   xml:space="preserve"
   inkscape:version="1.4.3 (0d15f75042, 2025-12-25)"
   xmlns:inkscape="http://www.inkscape.org/namespaces/inkscape"
   xmlns:sodipodi="http://sodipodi.sourceforge.net/DTD/sodipodi-0.dtd"
   xmlns:xlink="http://www.w3.org/1999/xlink"
   xmlns="http://www.w3.org/2000/svg"
   xmlns:svg="http://www.w3.org/2000/svg"><defs
     id="defs1" /><sodipodi:namedview
     id="namedview1"
     pagecolor="#ffffff"
     bordercolor="#000000"
     borderopacity="0.25"
     inkscape:showpageshadow="2"
     inkscape:pageopacity="0.0"
     inkscape:pagecheckerboard="0"
     inkscape:deskcolor="#d1d1d1"
     inkscape:zoom="1.1441381"
     inkscape:cx="163.44181"
     inkscape:cy="535.33749"
     inkscape:window-width="2560"
     inkscape:window-height="1374"
     inkscape:window-x="0"
     inkscape:window-y="0"
     inkscape:window-maximized="1"
     inkscape:current-layer="svg1"><inkscape:page
       x="0"
       y="0"
       width="53.988754"
       height="44.79303"
       id="page2"
       margin="0"
       bleed="0" /></sodipodi:namedview><g
     id="g81"
     inkscape:export-filename="/home/rai/Dev/rwall/public/logo.svg"
     inkscape:export-xdpi="96"
     inkscape:export-ydpi="96"
     transform="translate(105.01758,-683.93163)"><path
       style="fill:#1b1b1b;fill-opacity:1;stroke-width:0.307777"
       sodipodi:type="inkscape:offset"
       inkscape:radius="1.7480383"
       inkscape:original="M -103.20898 685.67969 L -103.20898 689.39062 L -103.20898 693.10156 L -95.232422 693.10156 L -87.255859 693.10156 L -87.255859 689.39062 L -87.255859 685.67969 L -95.232422 685.67969 L -103.20898 685.67969 z M -85.978516 685.67969 L -85.978516 689.39062 L -85.978516 693.10156 L -78.001953 693.10156 L -70.025391 693.10156 L -70.025391 689.39062 L -70.025391 685.67969 L -78.001953 685.67969 L -85.978516 685.67969 z M -77.044922 693.98047 L -77.044922 697.70312 L -77.044922 701.42383 L -68.988281 701.34375 L -60.931641 701.26562 L -60.931641 697.70312 L -60.931641 694.14062 L -68.988281 694.06055 L -77.044922 693.98047 z M -103.26953 693.99219 L -103.26953 697.70312 L -103.26953 701.41406 L -90.634766 701.41406 L -78.001953 701.41406 L -78.001953 697.70312 L -78.001953 693.99219 L -90.634766 693.99219 L -103.26953 693.99219 z M -60.566406 702.40039 C -64.752785 702.37139 -69.076172 702.41797 -69.076172 702.41797 C -69.076172 702.41797 -69.068359 703.4429 -69.068359 706.14648 C -69.068359 708.06123 -69.064453 710.01758 -69.064453 710.01758 C -69.064453 710.01758 -65.074151 710.02344 -60.710938 710.02344 L -52.777344 710.02344 L -52.867188 706.23828 L -52.955078 702.45312 L -60.566406 702.40039 z M -78.322266 702.41797 L -85.820312 702.45312 L -85.908203 706.23828 L -85.998047 710.02344 L -78.011719 710.02344 L -70.025391 710.02344 L -70.025391 706.34375 L -70.041016 702.45508 C -70.041016 702.45508 -74.198281 702.39887 -78.322266 702.41797 z M -91.164062 702.55273 C -93.3138 702.49203 -96.903146 702.49364 -99.140625 702.55664 L -103.20898 702.67188 L -103.20898 706.34766 L -103.20898 710.02344 L -95.232422 710.02344 L -87.255859 710.02344 L -87.255859 706.34375 L -87.255859 702.66406 L -91.164062 702.55273 z M -103.12891 710.91406 L -103.12891 714.625 L -103.12891 718.33594 L -90.566406 718.33594 L -78.001953 718.33594 L -78.001953 714.625 L -78.001953 710.91406 L -90.566406 710.91406 L -103.12891 710.91406 z M -77.044922 710.91406 L -77.044922 714.625 L -77.044922 718.33594 L -68.908203 718.33594 L -60.773438 718.33594 L -60.773438 714.625 L -60.773438 710.91406 L -68.908203 710.91406 L -77.044922 710.91406 z M -52.796875 719.2168 L -60.851562 719.29492 L -69.03125 719.34961 L -69 722.77148 C -69.04993 724.63929 -69.005859 726.91211 -69.005859 726.91211 C -69.005859 726.91211 -66.641227 726.88808 -60.796875 726.92578 L -52.796875 726.97656 L -52.796875 723.0957 L -52.796875 719.2168 z M -103.20898 719.22656 L -103.20898 723.0918 L -103.20898 726.95703 L -95.3125 726.87695 L -87.416016 726.79688 L -87.326172 723.01172 L -87.236328 719.22656 L -95.222656 719.22656 L -103.20898 719.22656 z M -85.978516 719.22656 L -85.978516 723.06641 L -85.978516 726.9082 L -78.001953 726.93555 L -70.025391 726.96289 L -70.025391 723.0957 L -70.025391 719.22656 L -78.001953 719.22656 L -85.978516 719.22656 z "
       xlink:href="#path4"
       id="path81"
       inkscape:href="#path4"
       d="m -103.20898,683.93164 a 1.7482131,1.7482131 0 0 0 -1.74805,1.74805 v 3.71093 3.71094 a 1.7482131,1.7482131 0 0 0 0.41406,0.41406 1.7482131,1.7482131 0 0 0 -0.47461,0.47657 v 3.71093 3.71094 a 1.7482131,1.7482131 0 0 0 0.65039,0.65039 1.7482131,1.7482131 0 0 0 -0.58984,0.60742 v 3.67579 3.67578 a 1.7482131,1.7482131 0 0 0 0.48437,0.48437 1.7482131,1.7482131 0 0 0 -0.40429,0.40625 v 3.71094 3.71094 a 1.7482131,1.7482131 0 0 0 0.40429,0.40625 1.7482131,1.7482131 0 0 0 -0.48437,0.48437 v 3.86524 3.86523 a 1.7482131,1.7482131 0 0 0 1.76562,1.74805 l 7.896488,-0.0801 7.896485,-0.0801 a 1.7482131,1.7482131 0 0 0 0.65625,-0.64844 1.7482131,1.7482131 0 0 0 0.757812,0.75977 l 7.976563,0.0273 7.976562,0.0274 a 1.7482131,1.7482131 0 0 0 0.769531,-0.31641 1.7482131,1.7482131 0 0 0 0.273438,0.26563 c 0,0 2.343168,-0.024 8.179687,0.0137 l 8,0.0508 a 1.7482131,1.7482131 0 0 0 1.759766,-1.74805 v -3.88086 -3.8789 a 1.7482131,1.7482131 0 0 0 -1.765625,-1.74805 l -6.210938,0.0606 v -2.9043 -2.85352 h 6.248047 a 1.7482131,1.7482131 0 0 0 1.748047,-1.78906 l -0.08984,-3.78515 -0.08789,-3.78516 a 1.7482131,1.7482131 0 0 0 -1.736328,-1.70703 l -6.240235,-0.043 v -2.95899 -3.5625 a 1.7482131,1.7482131 0 0 0 -1.730468,-1.74804 l -7.363282,-0.0723 v -2.92969 -3.71093 a 1.7482131,1.7482131 0 0 0 -1.748047,-1.74805 h -7.976562 -7.976563 a 1.7482131,1.7482131 0 0 0 -0.638671,0.63867 1.7482131,1.7482131 0 0 0 -0.638672,-0.63867 h -7.976563 z" /><path
       id="path4"
       style="fill:#baeae0;fill-opacity:1;stroke-width:0.307777"
       d="m -103.20913,723.0914 v -3.86468 h 7.986292 7.98629 l -0.0893,3.78528 -0.0893,3.78527 -7.896991,0.0794 -7.896991,0.0794 z m 17.229799,-0.0241 v -3.84053 h 7.976758 7.976759 v 3.86824 3.86824 l -7.976759,-0.0277 -7.976758,-0.0277 z m 16.973284,3.84512 c 0,0 -0.04373,-2.27338 0.0062,-4.14119 l -0.0312,-3.42217 8.178535,-0.0532 8.056525,-0.0793 v 3.87994 3.87995 l -8.001721,-0.0516 c -5.844352,-0.0377 -8.208311,-0.0124 -8.208311,-0.0124 z M -103.12941,714.62505 V 710.914 h 12.563419 12.563418 v 3.71105 3.71106 h -12.563418 -12.563419 z m 26.084049,0 V 710.914 h 8.136294 8.136294 v 3.71105 3.71106 h -8.136294 -8.136294 z m -26.163769,-8.27766 v -3.67595 l 4.068148,-0.11457 c 2.237479,-0.063 5.827021,-0.0647 7.976758,-0.004 l 3.908611,0.11074 v 3.67979 3.67978 h -7.976759 -7.976758 z m 17.300032,-0.10932 0.0893,-3.78528 7.498153,-0.0348 c 4.123985,-0.0191 8.280443,0.0363 8.280443,0.0363 l 0.01538,3.88977 v 3.6793 h -7.986285 -7.986289 z m 16.844053,3.77908 c 0,0 -0.0037,-1.95627 -0.0037,-3.87102 0,-2.70358 -0.0082,-3.72738 -0.0082,-3.72738 0,0 4.323321,-0.0479 8.5097,-0.0189 l 7.611591,0.0529 0.0893,3.78528 0.0893,3.78528 h -7.933113 c -4.363213,0 -8.354981,-0.006 -8.354981,-0.006 z m -34.203805,-12.31452 v -3.71105 h 12.63314 12.633137 v 3.71105 3.71106 h -12.633137 -12.63314 z m 26.223489,0 v -3.72124 l 8.056527,0.0793 8.056525,0.0793 v 3.56261 3.56261 l -8.056525,0.0793 -8.056527,0.0793 z m -26.163769,-8.31276 v -3.71106 h 7.976758 7.976759 v 3.71106 3.71105 h -7.976759 -7.976758 z m 17.229799,0 v -3.71106 h 7.976758 7.976759 v 3.71106 3.71105 h -7.976759 -7.976758 z"
       inkscape:export-filename="/home/rai/Dev/rwall/public/logo.svg"
       inkscape:export-xdpi="96"
       inkscape:export-ydpi="96" /></g></svg>
