<?xml version="1.0" encoding="UTF-8" standalone="no"?>
<svg
   width="158.0899"
   height="44.79303"
   viewBox="0 0 158.0899 44.79303"
   fill="none"
   version="1.1"
   id="svg1"
   sodipodi:docname="6883572e6ebf68cfe676ddf8_Group 14449.svg"
   xml:space="preserve"
   inkscape:version="1.4.3 (0d15f75042, 2025-12-25)"
   xmlns:inkscape="http://www.inkscape.org/namespaces/inkscape"
   xmlns:sodipodi="http://sodipodi.sourceforge.net/DTD/sodipodi-0.dtd"
   xmlns:xlink="http://www.w3.org/1999/xlink"
   xmlns="http://www.w3.org/2000/svg"
   xmlns:svg="http://www.w3.org/2000/svg"><defs
     id="defs1" /><sodipodi:namedview
     id="namedview1"
     pagecolor="#ffffff"
     bordercolor="#000000"
     borderopacity="0.25"
     inkscape:showpageshadow="2"
     inkscape:pageopacity="0.0"
     inkscape:pagecheckerboard="0"
     inkscape:deskcolor="#d1d1d1"
     inkscape:zoom="1.1441381"
     inkscape:cx="163.44181"
     inkscape:cy="535.33749"
     inkscape:window-width="2560"
     inkscape:window-height="1374"
     inkscape:window-x="0"
     inkscape:window-y="0"
     inkscape:window-maximized="1"
     inkscape:current-layer="svg1"><inkscape:page
       x="0"
       y="0"
       width="158.0899"
       height="44.79303"
       id="page2"
       margin="0"
       bleed="0" /></sodipodi:namedview><g
     id="g83"
     transform="translate(105.01758,-683.93162)"><g
       id="g81"
       inkscape:export-filename="/home/rai/Dev/rwall/public/logo.svg"
       inkscape:export-xdpi="96"
       inkscape:export-ydpi="96"><path
         style="fill:#1b1b1b;fill-opacity:1;stroke-width:0.307777"
         sodipodi:type="inkscape:offset"
         inkscape:radius="1.7480383"
         inkscape:original="M -103.20898 685.67969 L -103.20898 689.39062 L -103.20898 693.10156 L -95.232422 693.10156 L -87.255859 693.10156 L -87.255859 689.39062 L -87.255859 685.67969 L -95.232422 685.67969 L -103.20898 685.67969 z M -85.978516 685.67969 L -85.978516 689.39062 L -85.978516 693.10156 L -78.001953 693.10156 L -70.025391 693.10156 L -70.025391 689.39062 L -70.025391 685.67969 L -78.001953 685.67969 L -85.978516 685.67969 z M -77.044922 693.98047 L -77.044922 697.70312 L -77.044922 701.42383 L -68.988281 701.34375 L -60.931641 701.26562 L -60.931641 697.70312 L -60.931641 694.14062 L -68.988281 694.06055 L -77.044922 693.98047 z M -103.26953 693.99219 L -103.26953 697.70312 L -103.26953 701.41406 L -90.634766 701.41406 L -78.001953 701.41406 L -78.001953 697.70312 L -78.001953 693.99219 L -90.634766 693.99219 L -103.26953 693.99219 z M -60.566406 702.40039 C -64.752785 702.37139 -69.076172 702.41797 -69.076172 702.41797 C -69.076172 702.41797 -69.068359 703.4429 -69.068359 706.14648 C -69.068359 708.06123 -69.064453 710.01758 -69.064453 710.01758 C -69.064453 710.01758 -65.074151 710.02344 -60.710938 710.02344 L -52.777344 710.02344 L -52.867188 706.23828 L -52.955078 702.45312 L -60.566406 702.40039 z M -78.322266 702.41797 L -85.820312 702.45312 L -85.908203 706.23828 L -85.998047 710.02344 L -78.011719 710.02344 L -70.025391 710.02344 L -70.025391 706.34375 L -70.041016 702.45508 C -70.041016 702.45508 -74.198281 702.39887 -78.322266 702.41797 z M -91.164062 702.55273 C -93.3138 702.49203 -96.903146 702.49364 -99.140625 702.55664 L -103.20898 702.67188 L -103.20898 706.34766 L -103.20898 710.02344 L -95.232422 710.02344 L -87.255859 710.02344 L -87.255859 706.34375 L -87.255859 702.66406 L -91.164062 702.55273 z M -103.12891 710.91406 L -103.12891 714.625 L -103.12891 718.33594 L -90.566406 718.33594 L -78.001953 718.33594 L -78.001953 714.625 L -78.001953 710.91406 L -90.566406 710.91406 L -103.12891 710.91406 z M -77.044922 710.91406 L -77.044922 714.625 L -77.044922 718.33594 L -68.908203 718.33594 L -60.773438 718.33594 L -60.773438 714.625 L -60.773438 710.91406 L -68.908203 710.91406 L -77.044922 710.91406 z M -52.796875 719.2168 L -60.851562 719.29492 L -69.03125 719.34961 L -69 722.77148 C -69.04993 724.63929 -69.005859 726.91211 -69.005859 726.91211 C -69.005859 726.91211 -66.641227 726.88808 -60.796875 726.92578 L -52.796875 726.97656 L -52.796875 723.0957 L -52.796875 719.2168 z M -103.20898 719.22656 L -103.20898 723.0918 L -103.20898 726.95703 L -95.3125 726.87695 L -87.416016 726.79688 L -87.326172 723.01172 L -87.236328 719.22656 L -95.222656 719.22656 L -103.20898 719.22656 z M -85.978516 719.22656 L -85.978516 723.06641 L -85.978516 726.9082 L -78.001953 726.93555 L -70.025391 726.96289 L -70.025391 723.0957 L -70.025391 719.22656 L -78.001953 719.22656 L -85.978516 719.22656 z "
         xlink:href="#path4"
         id="path81"
         inkscape:href="#path4"
         d="m -103.20898,683.93164 a 1.7482131,1.7482131 0 0 0 -1.74805,1.74805 v 3.71093 3.71094 a 1.7482131,1.7482131 0 0 0 0.41406,0.41406 1.7482131,1.7482131 0 0 0 -0.47461,0.47657 v 3.71093 3.71094 a 1.7482131,1.7482131 0 0 0 0.65039,0.65039 1.7482131,1.7482131 0 0 0 -0.58984,0.60742 v 3.67579 3.67578 a 1.7482131,1.7482131 0 0 0 0.48437,0.48437 1.7482131,1.7482131 0 0 0 -0.40429,0.40625 v 3.71094 3.71094 a 1.7482131,1.7482131 0 0 0 0.40429,0.40625 1.7482131,1.7482131 0 0 0 -0.48437,0.48437 v 3.86524 3.86523 a 1.7482131,1.7482131 0 0 0 1.76562,1.74805 l 7.896488,-0.0801 7.896485,-0.0801 a 1.7482131,1.7482131 0 0 0 0.65625,-0.64844 1.7482131,1.7482131 0 0 0 0.757812,0.75977 l 7.976563,0.0273 7.976562,0.0274 a 1.7482131,1.7482131 0 0 0 0.769531,-0.31641 1.7482131,1.7482131 0 0 0 0.273438,0.26563 c 0,0 2.343168,-0.024 8.179687,0.0137 l 8,0.0508 a 1.7482131,1.7482131 0 0 0 1.759766,-1.74805 v -3.88086 -3.8789 a 1.7482131,1.7482131 0 0 0 -1.765625,-1.74805 l -6.210938,0.0606 v -2.9043 -2.85352 h 6.248047 a 1.7482131,1.7482131 0 0 0 1.748047,-1.78906 l -0.08984,-3.78515 -0.08789,-3.78516 a 1.7482131,1.7482131 0 0 0 -1.736328,-1.70703 l -6.240235,-0.043 v -2.95899 -3.5625 a 1.7482131,1.7482131 0 0 0 -1.730468,-1.74804 l -7.363282,-0.0723 v -2.92969 -3.71093 a 1.7482131,1.7482131 0 0 0 -1.748047,-1.74805 h -7.976562 -7.976563 a 1.7482131,1.7482131 0 0 0 -0.638671,0.63867 1.7482131,1.7482131 0 0 0 -0.638672,-0.63867 h -7.976563 z" /><path
         id="path4"
         style="fill:#baeae0;fill-opacity:1;stroke-width:0.307777"
         d="m -103.20913,723.0914 v -3.86468 h 7.986292 7.98629 l -0.0893,3.78528 -0.0893,3.78527 -7.896991,0.0794 -7.896991,0.0794 z m 17.229799,-0.0241 v -3.84053 h 7.976758 7.976759 v 3.86824 3.86824 l -7.976759,-0.0277 -7.976758,-0.0277 z m 16.973284,3.84512 c 0,0 -0.04373,-2.27338 0.0062,-4.14119 l -0.0312,-3.42217 8.178535,-0.0532 8.056525,-0.0793 v 3.87994 3.87995 l -8.001721,-0.0516 c -5.844352,-0.0377 -8.208311,-0.0124 -8.208311,-0.0124 z M -103.12941,714.62505 V 710.914 h 12.563419 12.563418 v 3.71105 3.71106 h -12.563418 -12.563419 z m 26.084049,0 V 710.914 h 8.136294 8.136294 v 3.71105 3.71106 h -8.136294 -8.136294 z m -26.163769,-8.27766 v -3.67595 l 4.068148,-0.11457 c 2.237479,-0.063 5.827021,-0.0647 7.976758,-0.004 l 3.908611,0.11074 v 3.67979 3.67978 h -7.976759 -7.976758 z m 17.300032,-0.10932 0.0893,-3.78528 7.498153,-0.0348 c 4.123985,-0.0191 8.280443,0.0363 8.280443,0.0363 l 0.01538,3.88977 v 3.6793 h -7.986285 -7.986289 z m 16.844053,3.77908 c 0,0 -0.0037,-1.95627 -0.0037,-3.87102 0,-2.70358 -0.0082,-3.72738 -0.0082,-3.72738 0,0 4.323321,-0.0479 8.5097,-0.0189 l 7.611591,0.0529 0.0893,3.78528 0.0893,3.78528 h -7.933113 c -4.363213,0 -8.354981,-0.006 -8.354981,-0.006 z m -34.203805,-12.31452 v -3.71105 h 12.63314 12.633137 v 3.71105 3.71106 h -12.633137 -12.63314 z m 26.223489,0 v -3.72124 l 8.056527,0.0793 8.056525,0.0793 v 3.56261 3.56261 l -8.056525,0.0793 -8.056527,0.0793 z m -26.163769,-8.31276 v -3.71106 h 7.976758 7.976759 v 3.71106 3.71105 h -7.976759 -7.976758 z m 17.229799,0 v -3.71106 h 7.976758 7.976759 v 3.71106 3.71105 h -7.976759 -7.976758 z"
         inkscape:export-filename="/home/rai/Dev/rwall/public/logo.svg"
         inkscape:export-xdpi="96"
         inkscape:export-ydpi="96" /></g><g
       id="g82"
       transform="matrix(0.8945401,0,0,0.8945401,-3.3867919,75.338232)"><path
         style="font-weight:900;font-size:38.3593px;font-family:'Noto Sans';-inkscape-font-specification:'Noto Sans Heavy';fill:#1b1b1b;fill-opacity:1;stroke-width:3.1966"
         sodipodi:type="inkscape:offset"
         inkscape:radius="2.0085807"
         inkscape:original="M -1.0332031 700.9043 L -9.9707031 728.4082 L -1.8398438 728.4082 L -0.45898438 723.26758 L 8.4414062 723.26758 L 9.7832031 728.4082 L 17.876953 728.4082 L 8.8242188 700.9043 L -1.0332031 700.9043 z M -47.716797 701.01953 L -40.927734 728.4082 L -32.181641 728.4082 L -29.535156 716.47852 C -29.48401 716.24836 -29.406979 715.86515 -29.304688 715.32812 C -29.176824 714.79109 -29.04974 714.17679 -28.921875 713.48633 C -28.794011 712.79586 -28.678464 712.11802 -28.576172 711.45312 C -28.448309 710.78823 -28.357787 710.22594 -28.306641 709.76562 C -28.255495 710.22594 -28.178463 710.78823 -28.076172 711.45312 C -27.97388 712.11802 -27.860286 712.79586 -27.732422 713.48633 C -27.578985 714.17679 -27.449948 714.79109 -27.347656 715.32812 C -27.245366 715.86515 -27.168334 716.24836 -27.117188 716.47852 L -24.509766 728.4082 L -15.763672 728.4082 L -9.0117188 701.01953 L -16.146484 701.01953 L -19.177734 714.79102 C -19.280026 715.25133 -19.420599 715.94266 -19.599609 716.86328 C -19.778619 717.75833 -19.957709 718.67881 -20.136719 719.625 C -20.315729 720.57119 -20.442813 721.36263 -20.519531 722.00195 C -20.59625 721.26034 -20.725287 720.39188 -20.904297 719.39453 C -21.083307 718.39719 -21.273933 717.38619 -21.478516 716.36328 C -21.683099 715.34037 -21.889167 714.39487 -22.09375 713.52539 C -22.27276 712.63034 -22.42487 711.91399 -22.552734 711.37695 L -24.892578 701.01953 L -31.759766 701.01953 L -34.175781 711.37695 C -34.303646 711.93956 -34.471199 712.65592 -34.675781 713.52539 C -34.854791 714.39487 -35.045417 715.34037 -35.25 716.36328 C -35.454583 717.36062 -35.647162 718.35813 -35.826172 719.35547 C -35.979609 720.35282 -36.106693 721.23477 -36.208984 722.00195 C -36.26013 721.54164 -36.350652 720.97935 -36.478516 720.31445 C -36.60638 719.62399 -36.746954 718.92112 -36.900391 718.20508 C -37.028255 717.48904 -37.155339 716.82469 -37.283203 716.21094 C -37.411068 715.57162 -37.513125 715.0844 -37.589844 714.75195 L -40.582031 701.01953 L -47.716797 701.01953 z M 20.830078 701.01953 L 20.830078 728.4082 L 38.783203 728.4082 L 38.783203 722.42383 L 28.234375 722.42383 L 28.234375 701.01953 L 20.830078 701.01953 z M 43.15625 701.01953 L 43.15625 728.4082 L 61.107422 728.4082 L 61.107422 722.42383 L 50.558594 722.42383 L 50.558594 701.01953 L 43.15625 701.01953 z M 3.953125 705.43164 C 4.0809893 706.04539 4.2600786 706.83877 4.4902344 707.81055 C 4.7203902 708.78231 4.9495317 709.72782 5.1796875 710.64844 C 5.4098433 711.54349 5.5889325 712.23286 5.7167969 712.71875 L 6.90625 717.20703 L 1.0761719 717.20703 L 2.265625 712.71875 C 2.4190622 712.105 2.5981514 711.35208 2.8027344 710.45703 C 3.0328901 709.56198 3.2504952 708.65304 3.4550781 707.73242 C 3.6852339 706.8118 3.8508335 706.04539 3.953125 705.43164 z "
         xlink:href="#text81"
         id="path82"
         inkscape:href="#text81"
         d="m -1.0332031,698.89648 a 2.0087815,2.0087815 0 0 0 -1.9101563,1.38672 l -8.9374996,27.50391 a 2.0087815,2.0087815 0 0 0 1.9101559,2.62891 h 8.1308594 a 2.0087815,2.0087815 0 0 0 1.93945307,-1.48633 l 0.98242183,-3.6543 H 6.890625 l 0.9492187,3.64063 a 2.0087815,2.0087815 0 0 0 1.9433594,1.5 h 8.0937499 a 2.0087815,2.0087815 0 0 0 1.693359,-1.25977 2.0087815,2.0087815 0 0 0 1.259766,1.25977 h 17.953125 a 2.0087815,2.0087815 0 0 0 2.007813,-2.00782 v -5.98437 a 2.0087815,2.0087815 0 0 0 -2.007813,-2.00781 h -8.541016 v -19.39649 a 2.0087815,2.0087815 0 0 0 -2.007812,-2.00781 h -7.404297 a 2.0087815,2.0087815 0 0 0 -2.007812,2.00781 v 23.83399 l -8.089844,-24.57813 a 2.0087815,2.0087815 0 0 0 -1.9082032,-1.37891 z m -46.6835939,0.11524 a 2.0087815,2.0087815 0 0 0 -1.949219,2.49023 l 6.789063,27.38867 a 2.0087815,2.0087815 0 0 0 1.949219,1.5254 h 8.746093 a 2.0087815,2.0087815 0 0 0 1.960938,-1.57227 l 1.888672,-8.51367 1.859375,8.50781 a 2.0087815,2.0087815 0 0 0 1.96289,1.57813 h 8.746094 a 2.0087815,2.0087815 0 0 0 1.949219,-1.52735 L -7.0625,701.5 a 2.0087815,2.0087815 0 0 0 -1.9492188,-2.48828 h -7.1347652 a 2.0087815,2.0087815 0 0 0 -1.960938,1.57617 l -2.384765,10.83008 c -0.03334,-0.14825 -0.07598,-0.37381 -0.107422,-0.50586 l -2.333985,-10.33594 a 2.0087815,2.0087815 0 0 0 -1.958984,-1.56445 h -6.867188 a 2.0087815,2.0087815 0 0 0 -1.957031,1.55078 l -2.416015,10.35742 a 2.0087815,2.0087815 0 0 0 -0.002,0.0117 c -0.03022,0.13296 -0.08418,0.36211 -0.11914,0.51367 l -2.365235,-10.85351 a 2.0087815,2.0087815 0 0 0 -1.96289,-1.58008 z m 90.873047,0 a 2.0087815,2.0087815 0 0 0 -2.007813,2.00781 v 27.38867 a 2.0087815,2.0087815 0 0 0 2.007813,2.00782 h 17.951172 a 2.0087815,2.0087815 0 0 0 2.007812,-2.00782 v -5.98437 a 2.0087815,2.0087815 0 0 0 -2.007812,-2.00781 h -8.541016 v -19.39649 a 2.0087815,2.0087815 0 0 0 -2.007812,-2.00781 z M 3.9921875,714.04687 4.296875,715.19922 H 3.6855469 Z" /><path
         d="m -9.0124442,701.02003 -6.7512368,27.38854 h -8.74592 l -2.608432,-11.92974 q -0.07672,-0.34524 -0.230156,-1.15078 -0.153437,-0.80555 -0.383593,-1.84125 -0.191796,-1.0357 -0.345234,-2.03304 -0.153437,-0.99734 -0.230155,-1.68781 -0.07672,0.69047 -0.268515,1.68781 -0.153438,0.99734 -0.345234,2.03304 -0.191797,1.0357 -0.383593,1.84125 -0.153437,0.80554 -0.230156,1.15078 l -2.646792,11.92974 h -8.74592 l -6.789596,-27.38854 h 7.13483 l 2.992025,13.73263 q 0.115078,0.49867 0.306875,1.45765 0.191796,0.92063 0.383593,1.99469 0.230155,1.07406 0.421952,2.10976 0.191796,0.99734 0.268515,1.68781 0.153437,-1.15078 0.383593,-2.6468 0.268515,-1.49601 0.57539,-2.99202 0.306874,-1.53437 0.575389,-2.83859 0.306874,-1.30421 0.498671,-2.14812 l 2.416636,-10.35701 h 6.866314 l 2.339917,10.35701 q 0.191797,0.80555 0.460312,2.14812 0.306874,1.30422 0.613749,2.83859 0.306874,1.53437 0.575389,3.03038 0.268515,1.49602 0.383593,2.60844 0.115078,-0.95899 0.383593,-2.37828 0.268515,-1.41929 0.53703,-2.76187 0.268515,-1.38093 0.421953,-2.0714 l 3.030384,-13.77099 z m 18.7960055,27.38854 -1.3425754,-5.14015 h -8.89935733 l -1.38093477,5.14015 h -8.1321713 l 8.9377166,-27.50362 h 9.8583398 l 9.0527941,27.50362 z M 5.7174757,712.71962 q -0.1917965,-0.72883 -0.5370302,-2.07141 -0.3452337,-1.38093 -0.6904674,-2.83858 -0.3452337,-1.45766 -0.5370302,-2.37828 -0.1534372,0.92062 -0.4986709,2.30156 -0.3068744,1.38093 -0.652108,2.72351 -0.3068744,1.34257 -0.5370302,2.2632 l -1.1891383,4.48803 h 5.8306134 z m 15.1135553,15.68895 v -27.38854 h 7.403345 v 21.40449 h 10.548807 v 5.98405 z m 22.325142,0 v -27.38854 h 7.403345 v 21.40449 h 10.548807 v 5.98405 z"
         id="text81"
         style="font-weight:900;font-size:38.3593px;font-family:'Noto Sans';-inkscape-font-specification:'Noto Sans Heavy';fill:#baeae0;stroke-width:3.1966"
         aria-label="WALL" /></g></g></svg>
